<svg xmlns="http://www.w3.org/2000/svg" width="138.285" height="131.259" viewBox="0 0 138.285 131.259">
  <g id="Group_37" data-name="Group 37" transform="translate(-230.339 -145.765)">
    <g id="Group_13" data-name="Group 13">
      <rect id="Rectangle_6" data-name="Rectangle 6" width="31.997" height="8.953" rx="4.477" transform="translate(283.452 216.066)" fill="#fff"/>
      <rect id="Rectangle_7" data-name="Rectangle 7" width="31.997" height="8.953" rx="4.477" transform="translate(283.452 230.891)" fill="#fff"/>
    </g>
    <g id="Group_18" data-name="Group 18">
      <g id="Group_14" data-name="Group 14">
        <path id="Path_82" data-name="Path 82" d="M280.734,191.7a18.747,18.747,0,1,1,37.494,0q0,.519-.03,1.031a3.152,3.152,0,0,0,3.124,3.379h0a3.131,3.131,0,0,0,3.135-2.92q.045-.739.046-1.49a25.022,25.022,0,1,0-50.044,0q0,.75.046,1.49a3.131,3.131,0,0,0,3.135,2.92h0a3.153,3.153,0,0,0,3.125-3.379Q280.733,192.216,280.734,191.7Z" fill="#fea30f"/>
        <circle id="Ellipse_6" data-name="Ellipse 6" cx="9.355" cy="9.355" r="9.355" transform="translate(290.126 145.765)" fill="#fea30f"/>
      </g>
      <g id="Group_17" data-name="Group 17">
        <g id="Group_15" data-name="Group 15">
          <path id="Path_83" data-name="Path 83" d="M322.691,196.075a18.747,18.747,0,1,1,0,37.494q-.519,0-1.031-.03a3.151,3.151,0,0,0-3.378,3.124h0A3.131,3.131,0,0,0,321.2,239.8q.74.045,1.49.046a25.022,25.022,0,1,0,0-50.044q-.75,0-1.49.046a3.131,3.131,0,0,0-2.919,3.135h0a3.152,3.152,0,0,0,3.378,3.125Q322.172,196.075,322.691,196.075Z" fill="#fea30f"/>
          <circle id="Ellipse_7" data-name="Ellipse 7" cx="9.355" cy="9.355" r="9.355" transform="translate(349.914 205.467)" fill="#fea30f"/>
        </g>
        <g id="Group_16" data-name="Group 16">
          <path id="Path_84" data-name="Path 84" d="M276.271,233.569a18.747,18.747,0,1,1,0-37.494q.519,0,1.031.031a3.153,3.153,0,0,0,3.379-3.125h0a3.131,3.131,0,0,0-2.92-3.135q-.739-.045-1.49-.046a25.022,25.022,0,1,0,0,50.044q.75,0,1.49-.046a3.131,3.131,0,0,0,2.92-3.135h0a3.152,3.152,0,0,0-3.379-3.124Q276.79,233.569,276.271,233.569Z" fill="#fea30f"/>
          <circle id="Ellipse_8" data-name="Ellipse 8" cx="9.355" cy="9.355" r="9.355" transform="translate(230.339 205.467)" fill="#fea30f"/>
        </g>
      </g>
    </g>
    <g id="Group_22" data-name="Group 22">
      <g id="Group_19" data-name="Group 19">
        <path id="Path_85" data-name="Path 85" d="M243.419,247.963V252.7h.885v1.383h-.885v1.437h-1.4v-1.437h-4.04l-.13-1.448,3.4-4.667Zm-1.4,4.732v-3.5l-2.56,3.5Z" fill="#fff"/>
        <path id="Path_86" data-name="Path 86" d="M247.132,248.687V250.2H248.6v1.135h-1.48v2.3a.661.661,0,0,0,.691.756,1.507,1.507,0,0,0,.637-.162l.368,1.123a2.957,2.957,0,0,1-1.091.228,1.722,1.722,0,0,1-1.913-1.945v-2.3h-.994V250.2h.994v-1.372Z" fill="#fff"/>
        <path id="Path_87" data-name="Path 87" d="M250.9,247.952v2.96a1.969,1.969,0,0,1,1.663-.8c1.513,0,2.183,1.027,2.183,2.593v2.81h-1.318v-2.8c0-.973-.508-1.383-1.21-1.383a1.364,1.364,0,0,0-1.318,1.458v2.723h-1.318v-7.563Z" fill="#fff"/>
        <path id="Path_88" data-name="Path 88" d="M258.145,255.515v-7.563h1.415v7.563Z" fill="#fff"/>
        <path id="Path_89" data-name="Path 89" d="M266.268,254.088h-3.954l-.648,1.427h-1.545l3.392-7.563h1.556l3.392,7.563H266.9Zm-1.977-4.548-1.4,3.219H265.7Z" fill="#fff"/>
        <path id="Path_90" data-name="Path 90" d="M274.356,254.088H270.4l-.648,1.427h-1.545l3.393-7.563h1.555l3.392,7.563h-1.555Zm-1.977-4.548-1.4,3.219h2.809Z" fill="#fff"/>
        <path id="Path_91" data-name="Path 91" d="M282.228,255.525v-3.057h-3.716v3.057h-1.426v-7.562h1.426v3.187h3.716v-3.187h1.416v7.562Z" fill="#fff"/>
        <path id="Path_92" data-name="Path 92" d="M293.751,250.037l-2.463,3.284h-.281l-2.409-3.295v5.5h-1.426v-7.562h1.642l2.366,3.252,2.366-3.252h1.631v7.562h-1.426Z" fill="#fff"/>
        <path id="Path_93" data-name="Path 93" d="M302.152,255.515h-5.661v-7.563h5.661v1.383h-4.246v1.739H302V252.4h-4.1v1.707h4.246Z" fill="#fff"/>
        <path id="Path_94" data-name="Path 94" d="M308.447,247.941h1.427v7.574h-.886v.01l-3.976-5.109v5.1h-1.426v-7.563h1.156l3.7,4.689Z" fill="#fff"/>
        <path id="Path_95" data-name="Path 95" d="M316.547,254.088h-3.955l-.648,1.427H310.4l3.393-7.563h1.555l3.392,7.563h-1.555Zm-1.977-4.548-1.4,3.219h2.809Z" fill="#fff"/>
        <path id="Path_96" data-name="Path 96" d="M328.155,255.515h-1.7l-2.2-2.528h-1.372v2.528h-1.426v-7.574c1.2,0,2.4.011,3.6.011a2.507,2.507,0,0,1,2.723,2.506,2.245,2.245,0,0,1-1.913,2.378l2.29,2.581Zm-5.272-6.234v2.42h2.172a1.213,1.213,0,1,0,0-2.42Z" fill="#fff"/>
        <path id="Path_97" data-name="Path 97" d="M334.375,255.515h-5.661v-7.563h5.661v1.383h-4.246v1.739h4.1V252.4h-4.1v1.707h4.246Z" fill="#fff"/>
        <path id="Path_98" data-name="Path 98" d="M341.092,249.8a2.9,2.9,0,0,0-1.923-.757,2.58,2.58,0,0,0-2.6,2.788,2.393,2.393,0,0,0,2.6,2.527,2.515,2.515,0,0,0,1.707-.6v-1.341h-1.934v-1.274h3.241v3.187a3.767,3.767,0,0,1-3.014,1.361,3.645,3.645,0,0,1-4-3.856,3.847,3.847,0,0,1,4-4.1,4,4,0,0,1,2.809,1.156Z" fill="#fff"/>
        <path id="Path_99" data-name="Path 99" d="M343.357,255.515v-7.563h1.415v7.563Z" fill="#fff"/>
        <path id="Path_100" data-name="Path 100" d="M353.77,251.777a3.884,3.884,0,1,1-7.768.01,3.885,3.885,0,1,1,7.768-.01Zm-6.363.032a2.481,2.481,0,1,0,4.959-.01,2.489,2.489,0,1,0-4.959.01Z" fill="#fff"/>
        <path id="Path_101" data-name="Path 101" d="M359.784,247.941h1.426v7.574h-.885v.01l-3.976-5.109v5.1h-1.427v-7.563h1.157l3.7,4.689Z" fill="#fff"/>
      </g>
      <g id="Group_20" data-name="Group 20">
        <path id="Path_102" data-name="Path 102" d="M241.145,264.9h-2.539l-.416.916H237.2l2.178-4.855h1l2.178,4.855h-1Zm-1.27-2.919-.9,2.066h1.8Z" fill="#fff"/>
        <path id="Path_103" data-name="Path 103" d="M247.391,263.348a2.3,2.3,0,0,1-2.427,2.469h-1.908v-4.855h1.908A2.292,2.292,0,0,1,247.391,263.348Zm-3.426,1.588h1a1.554,1.554,0,0,0,0-3.107h-1Z" fill="#fff"/>
        <path id="Path_104" data-name="Path 104" d="M252.84,263.417a2.494,2.494,0,1,1-4.987.006,2.494,2.494,0,1,1,4.987-.006Zm-4.085.02a1.593,1.593,0,1,0,3.183-.007,1.6,1.6,0,1,0-3.183.007Z" fill="#fff"/>
        <path id="Path_105" data-name="Path 105" d="M254.433,260.962v4.009h2.5v.846h-3.412v-4.855Z" fill="#fff"/>
        <path id="Path_106" data-name="Path 106" d="M261.2,265.817h-3.634v-4.855H261.2v.887h-2.725v1.117H261.1v.853h-2.628v1.1H261.2Z" fill="#fff"/>
        <path id="Path_107" data-name="Path 107" d="M265.052,262.134a1.391,1.391,0,0,0-1.152-.541c-.679,0-1.005.284-1.005.645,0,.423.5.541,1.082.61,1.012.125,1.955.389,1.955,1.547,0,1.082-.957,1.547-2.039,1.547a2.017,2.017,0,0,1-2.115-1.194l.763-.395a1.384,1.384,0,0,0,1.366.77c.576,0,1.117-.2,1.117-.728,0-.458-.479-.645-1.124-.714-.991-.119-1.907-.382-1.907-1.471,0-1,.985-1.408,1.879-1.415a1.963,1.963,0,0,1,1.908.964Z" fill="#fff"/>
        <path id="Path_108" data-name="Path 108" d="M270.923,265.206a2.563,2.563,0,0,1-1.845.722,2.387,2.387,0,0,1-2.573-2.505,2.443,2.443,0,0,1,2.573-2.559,2.509,2.509,0,0,1,1.782.742l-.61.59a1.668,1.668,0,0,0-1.172-.458,1.593,1.593,0,0,0-1.672,1.685,1.557,1.557,0,0,0,1.672,1.645,1.791,1.791,0,0,0,1.221-.493Z" fill="#fff"/>
        <path id="Path_109" data-name="Path 109" d="M275.06,265.817h-3.633v-4.855h3.633v.887h-2.725v1.117h2.629v.853h-2.629v1.1h2.725Z" fill="#fff"/>
        <path id="Path_110" data-name="Path 110" d="M279.108,260.955h.915v4.862h-.568v.007l-2.553-3.281v3.274h-.915v-4.855h.742l2.379,3.01Z" fill="#fff"/>
        <path id="Path_111" data-name="Path 111" d="M282.122,261.794h-1.539v-.832h3.995v.832h-1.54v4.023h-.916Z" fill="#fff"/>
        <path id="Path_112" data-name="Path 112" d="M289.846,265.824V263.86H287.46v1.964h-.915v-4.855h.915v2.045h2.386v-2.045h.909v4.855Z" fill="#fff"/>
        <path id="Path_113" data-name="Path 113" d="M295.24,265.817h-3.634v-4.855h3.634v.887h-2.726v1.117h2.629v.853h-2.629v1.1h2.726Z" fill="#fff"/>
        <path id="Path_114" data-name="Path 114" d="M299.4,264.9h-2.539l-.416.916h-.991l2.177-4.855h1l2.178,4.855h-1Zm-1.269-2.919-.9,2.066h1.8Z" fill="#fff"/>
        <path id="Path_115" data-name="Path 115" d="M302.211,260.962v4.009h2.5v.846H301.3v-4.855Z" fill="#fff"/>
        <path id="Path_116" data-name="Path 116" d="M305.89,261.794h-1.54v-.832h3.995v.832h-1.539v4.023h-.916Z" fill="#fff"/>
        <path id="Path_117" data-name="Path 117" d="M312.212,265.824V263.86h-2.386v1.964h-.915v-4.855h.915v2.045h2.386v-2.045h.909v4.855Z" fill="#fff"/>
        <path id="Path_118" data-name="Path 118" d="M319.667,265.206a2.563,2.563,0,0,1-1.845.722,2.387,2.387,0,0,1-2.573-2.505,2.443,2.443,0,0,1,2.573-2.559,2.509,2.509,0,0,1,1.782.742l-.61.59a1.668,1.668,0,0,0-1.172-.458,1.593,1.593,0,0,0-1.672,1.685,1.557,1.557,0,0,0,1.672,1.645,1.791,1.791,0,0,0,1.221-.493Z" fill="#fff"/>
        <path id="Path_119" data-name="Path 119" d="M324.955,263.417a2.493,2.493,0,1,1-4.986.006,2.494,2.494,0,1,1,4.986-.006Zm-4.085.02a1.593,1.593,0,1,0,3.184-.007,1.6,1.6,0,1,0-3.184.007Z" fill="#fff"/>
        <path id="Path_120" data-name="Path 120" d="M328.823,260.955h.916v4.862h-.569v.007l-2.552-3.281v3.274H325.7v-4.855h.743l2.378,3.01Z" fill="#fff"/>
        <path id="Path_121" data-name="Path 121" d="M330.582,265.817v-4.848h3.489v.88H331.5v1.325h2.435v.846H331.5v1.8Z" fill="#fff"/>
        <path id="Path_122" data-name="Path 122" d="M338.326,265.817h-3.634v-4.855h3.634v.887H335.6v1.117h2.628v.853H335.6v1.1h2.725Z" fill="#fff"/>
        <path id="Path_123" data-name="Path 123" d="M343.344,265.817h-1.089l-1.415-1.623h-.881v1.623h-.915v-4.862c.769,0,1.54.007,2.309.007a1.609,1.609,0,0,1,1.748,1.608,1.441,1.441,0,0,1-1.227,1.527l1.47,1.657Zm-3.385-4v1.554h1.394a.779.779,0,1,0,0-1.554Z" fill="#fff"/>
        <path id="Path_124" data-name="Path 124" d="M347.343,265.817h-3.635v-4.855h3.635v.887h-2.726v1.117h2.628v.853h-2.628v1.1h2.726Z" fill="#fff"/>
        <path id="Path_125" data-name="Path 125" d="M351.391,260.955h.915v4.862h-.569v.007l-2.552-3.281v3.274h-.915v-4.855h.741l2.38,3.01Z" fill="#fff"/>
        <path id="Path_126" data-name="Path 126" d="M357.428,265.206a2.56,2.56,0,0,1-1.845.722,2.386,2.386,0,0,1-2.572-2.505,2.443,2.443,0,0,1,2.572-2.559,2.513,2.513,0,0,1,1.783.742l-.611.59a1.665,1.665,0,0,0-1.172-.458,1.591,1.591,0,0,0-1.671,1.685,1.556,1.556,0,0,0,1.671,1.645,1.787,1.787,0,0,0,1.221-.493Z" fill="#fff"/>
        <path id="Path_127" data-name="Path 127" d="M361.566,265.817h-3.635v-4.855h3.635v.887H358.84v1.117h2.629v.853H358.84v1.1h2.726Z" fill="#fff"/>
      </g>
      <g id="Group_21" data-name="Group 21">
        <path id="Path_128" data-name="Path 128" d="M238.347,270.234,238,271.482h-.378l.432-1.248Zm.836,0-.345,1.248h-.378l.431-1.248Z" fill="#fff"/>
        <path id="Path_129" data-name="Path 129" d="M243.761,274.887l-.511-1.142h-2.775l-.5,1.142h-.385l2.084-4.646h.392l2.084,4.646Zm-.651-1.473-1.247-2.828-1.248,2.828Z" fill="#fff"/>
        <path id="Path_130" data-name="Path 130" d="M247.614,270.241v4.646h-.319v-.724a1.542,1.542,0,0,1-1.367.777,1.693,1.693,0,0,1,.007-3.385,1.45,1.45,0,0,1,1.36.77v-2.084Zm-3.007,3.007a1.273,1.273,0,0,0,1.341,1.373,1.377,1.377,0,0,0,0-2.754A1.272,1.272,0,0,0,244.607,273.248Z" fill="#fff"/>
        <path id="Path_131" data-name="Path 131" d="M248.4,273.254a1.666,1.666,0,1,1,3.331,0,1.666,1.666,0,1,1-3.331,0Zm3.013,0a1.348,1.348,0,1,0-2.7,0,1.348,1.348,0,1,0,2.7,0Z" fill="#fff"/>
        <path id="Path_132" data-name="Path 132" d="M252.8,270.241v4.646h-.325v-4.646Z" fill="#fff"/>
        <path id="Path_133" data-name="Path 133" d="M253.522,273.248a1.648,1.648,0,0,1,1.666-1.693,1.531,1.531,0,0,1,1.619,1.845h-2.953a1.29,1.29,0,0,0,1.334,1.215,1.542,1.542,0,0,0,1.181-.5l.233.186a1.8,1.8,0,0,1-1.414.63A1.608,1.608,0,0,1,253.522,273.248Zm2.993-.133a1.2,1.2,0,0,0-1.327-1.261,1.31,1.31,0,0,0-1.334,1.261Z" fill="#fff"/>
        <path id="Path_134" data-name="Path 134" d="M259.9,272.2a1.407,1.407,0,0,0-1.022-.344c-.512-.007-1,.185-.989.6.013.438.583.525.995.6.584.1,1.387.2,1.354.962-.02.724-.77.916-1.347.916a1.689,1.689,0,0,1-1.434-.657l.239-.213a1.454,1.454,0,0,0,1.2.558c.4,0,1-.106,1.023-.624.013-.471-.532-.564-1.069-.65-.637-.106-1.268-.226-1.275-.883s.638-.922,1.3-.916a1.718,1.718,0,0,1,1.22.438Z" fill="#fff"/>
        <path id="Path_135" data-name="Path 135" d="M263.645,274.429a1.676,1.676,0,0,1-1.194.491,1.673,1.673,0,1,1,0-3.345,1.705,1.705,0,0,1,1.194.491l-.212.206a1.386,1.386,0,0,0-.982-.391,1.367,1.367,0,0,0,0,2.734,1.388,1.388,0,0,0,.975-.4Z" fill="#fff"/>
        <path id="Path_136" data-name="Path 136" d="M264.254,273.248a1.648,1.648,0,0,1,1.665-1.693,1.531,1.531,0,0,1,1.62,1.845h-2.953a1.29,1.29,0,0,0,1.333,1.215,1.544,1.544,0,0,0,1.182-.5l.232.186a1.8,1.8,0,0,1-1.414.63A1.607,1.607,0,0,1,264.254,273.248Zm2.993-.133a1.2,1.2,0,0,0-1.328-1.261,1.31,1.31,0,0,0-1.333,1.261Z" fill="#fff"/>
        <path id="Path_137" data-name="Path 137" d="M268.7,271.609v.583a1.3,1.3,0,0,1,1.168-.643,1.367,1.367,0,0,1,1.48,1.446v1.892h-.325V273a1.05,1.05,0,0,0-1.168-1.135,1.139,1.139,0,0,0-1.148,1.2v1.825h-.326v-3.278Z" fill="#fff"/>
        <path id="Path_138" data-name="Path 138" d="M272.8,270.619v.99h1.116v.272H272.8v2c0,.445.093.757.6.757a1.211,1.211,0,0,0,.505-.133l.112.265a1.422,1.422,0,0,1-.617.166c-.7,0-.922-.411-.922-1.055v-2h-.7v-.272h.7v-.957Z" fill="#fff"/>
        <path id="Path_139" data-name="Path 139" d="M279.179,274.429a1.676,1.676,0,0,1-1.194.491,1.673,1.673,0,1,1,0-3.345,1.705,1.705,0,0,1,1.194.491l-.212.206a1.387,1.387,0,0,0-.982-.391,1.367,1.367,0,0,0,0,2.734,1.388,1.388,0,0,0,.975-.4Z" fill="#fff"/>
        <path id="Path_140" data-name="Path 140" d="M282.994,271.609v3.278h-.326v-.7a1.531,1.531,0,0,1-1.34.75,1.686,1.686,0,0,1,0-3.371,1.485,1.485,0,0,1,1.34.756v-.716Zm-3.007,1.639a1.317,1.317,0,0,0,1.341,1.373,1.37,1.37,0,0,0,0-2.74A1.311,1.311,0,0,0,279.987,273.248Z" fill="#fff"/>
        <path id="Path_141" data-name="Path 141" d="M284.179,271.609l.013.583a1.156,1.156,0,0,1,1.089-.617,1.281,1.281,0,0,1,.7.193l-.145.265a1.059,1.059,0,0,0-.558-.152,1.088,1.088,0,0,0-1.082,1.1v1.911h-.325v-3.278Z" fill="#fff"/>
        <path id="Path_142" data-name="Path 142" d="M286.288,273.248a1.648,1.648,0,0,1,1.666-1.693,1.531,1.531,0,0,1,1.619,1.845H286.62a1.29,1.29,0,0,0,1.334,1.215,1.542,1.542,0,0,0,1.181-.5l.232.186a1.8,1.8,0,0,1-1.413.63A1.608,1.608,0,0,1,286.288,273.248Zm2.993-.133a1.2,1.2,0,0,0-1.327-1.261,1.31,1.31,0,0,0-1.334,1.261Z" fill="#fff"/>
        <path id="Path_143" data-name="Path 143" d="M290.872,274.688a.345.345,0,0,1-.02.113l-.266.677H290.3l.206-.551a.245.245,0,0,1-.159-.239A.262.262,0,0,1,290.872,274.688Z" fill="#fff"/>
        <path id="Path_144" data-name="Path 144" d="M293.876,270.241v4.646h-.325v-4.646Z" fill="#fff"/>
        <path id="Path_145" data-name="Path 145" d="M294.6,273.248a1.648,1.648,0,0,1,1.666-1.693,1.531,1.531,0,0,1,1.619,1.845h-2.953a1.29,1.29,0,0,0,1.334,1.215,1.542,1.542,0,0,0,1.181-.5l.232.186a1.8,1.8,0,0,1-1.413.63A1.608,1.608,0,0,1,294.6,273.248Zm2.993-.133a1.2,1.2,0,0,0-1.327-1.261,1.31,1.31,0,0,0-1.334,1.261Z" fill="#fff"/>
        <path id="Path_146" data-name="Path 146" d="M301.877,271.609v3.278h-.325v-.7a1.534,1.534,0,0,1-1.341.75,1.686,1.686,0,0,1,0-3.371,1.487,1.487,0,0,1,1.341.756v-.716Zm-3.006,1.639a1.316,1.316,0,0,0,1.34,1.373,1.37,1.37,0,0,0,0-2.74A1.31,1.31,0,0,0,298.871,273.248Z" fill="#fff"/>
        <path id="Path_147" data-name="Path 147" d="M302.24,271.609h.358l1.2,2.9,1.2-2.9h.358l-1.374,3.278h-.359Z" fill="#fff"/>
        <path id="Path_148" data-name="Path 148" d="M306.313,270.539a.262.262,0,0,1-.524,0A.262.262,0,0,1,306.313,270.539Zm-.432,1.056v3.292h.326V271.6Z" fill="#fff"/>
        <path id="Path_149" data-name="Path 149" d="M307.454,271.609v.583a1.3,1.3,0,0,1,1.168-.643,1.367,1.367,0,0,1,1.48,1.446v1.892h-.326V273a1.049,1.049,0,0,0-1.167-1.135,1.139,1.139,0,0,0-1.149,1.2v1.825h-.325v-3.278Z" fill="#fff"/>
        <path id="Path_150" data-name="Path 150" d="M313.584,271.476l.212.186-.318.371a1.615,1.615,0,0,1-.479,2.509,1.2,1.2,0,0,1,.9,1.174c0,.883-.69,1.308-1.559,1.308s-1.553-.478-1.553-1.308h.325c0,.671.571.99,1.228.99s1.241-.293,1.241-.99-.631-.982-1.241-.982a1.593,1.593,0,0,1,0-3.185,1.664,1.664,0,0,1,.929.3Zm-2.463,1.672a1.2,1.2,0,0,0,1.215,1.261,1.258,1.258,0,0,0,1.228-1.261,1.179,1.179,0,0,0-1.228-1.274A1.159,1.159,0,0,0,311.121,273.148Z" fill="#fff"/>
        <path id="Path_151" data-name="Path 151" d="M316.693,271.609v.583a1.3,1.3,0,0,1,1.168-.643,1.367,1.367,0,0,1,1.48,1.446v1.892h-.325V273a1.05,1.05,0,0,0-1.168-1.135,1.139,1.139,0,0,0-1.148,1.2v1.825h-.325v-3.278Z" fill="#fff"/>
        <path id="Path_152" data-name="Path 152" d="M320.036,273.254a1.666,1.666,0,1,1,3.332,0,1.666,1.666,0,1,1-3.332,0Zm3.013,0a1.348,1.348,0,1,0-2.7,0,1.348,1.348,0,1,0,2.7,0Z" fill="#fff"/>
        <path id="Path_153" data-name="Path 153" d="M325.787,273.254a1.666,1.666,0,1,1,3.331,0,1.666,1.666,0,1,1-3.331,0Zm3.013,0a1.348,1.348,0,1,0-2.695,0,1.348,1.348,0,1,0,2.695,0Z" fill="#fff"/>
        <path id="Path_154" data-name="Path 154" d="M330.185,271.609v.583a1.3,1.3,0,0,1,1.168-.643,1.368,1.368,0,0,1,1.48,1.446v1.892h-.326V273a1.049,1.049,0,0,0-1.168-1.135,1.138,1.138,0,0,0-1.147,1.2v1.825h-.326v-3.278Z" fill="#fff"/>
        <path id="Path_155" data-name="Path 155" d="M333.494,273.248a1.649,1.649,0,0,1,1.666-1.693,1.53,1.53,0,0,1,1.619,1.845h-2.953a1.291,1.291,0,0,0,1.334,1.215,1.54,1.54,0,0,0,1.181-.5l.233.186a1.8,1.8,0,0,1-1.414.63A1.608,1.608,0,0,1,333.494,273.248Zm2.993-.133a1.2,1.2,0,0,0-1.327-1.261,1.31,1.31,0,0,0-1.334,1.261Z" fill="#fff"/>
        <path id="Path_156" data-name="Path 156" d="M339.762,270.241v2.084a1.452,1.452,0,0,1,1.36-.77,1.693,1.693,0,0,1,.007,3.385,1.544,1.544,0,0,1-1.367-.777v.724h-.319v-4.646Zm.007,3a1.311,1.311,0,0,0,1.34,1.38,1.377,1.377,0,0,0,0-2.754A1.313,1.313,0,0,0,339.769,273.241Z" fill="#fff"/>
        <path id="Path_157" data-name="Path 157" d="M343.377,273.248a1.648,1.648,0,0,1,1.666-1.693,1.531,1.531,0,0,1,1.619,1.845h-2.954a1.291,1.291,0,0,0,1.335,1.215,1.543,1.543,0,0,0,1.181-.5l.233.186a1.8,1.8,0,0,1-1.414.63A1.608,1.608,0,0,1,343.377,273.248Zm2.993-.133a1.2,1.2,0,0,0-1.327-1.261,1.311,1.311,0,0,0-1.335,1.261Z" fill="#fff"/>
        <path id="Path_158" data-name="Path 158" d="M347.748,270.241v1.977a1.313,1.313,0,0,1,1.181-.656,1.293,1.293,0,0,1,1.374,1.447v1.878h-.319v-1.878c0-.678-.319-1.135-1.055-1.135a1.156,1.156,0,0,0-1.168,1.214v1.8h-.325v-4.646Z" fill="#fff"/>
        <path id="Path_159" data-name="Path 159" d="M351.583,270.539a.263.263,0,0,1-.525,0A.263.263,0,0,1,351.583,270.539Zm-.432,1.056v3.292h.326V271.6Z" fill="#fff"/>
        <path id="Path_160" data-name="Path 160" d="M352.723,271.609v.583a1.3,1.3,0,0,1,1.168-.643,1.368,1.368,0,0,1,1.481,1.446v1.892h-.326V273a1.05,1.05,0,0,0-1.169-1.135,1.139,1.139,0,0,0-1.147,1.2v1.825H352.4v-3.278Z" fill="#fff"/>
        <path id="Path_161" data-name="Path 161" d="M359.364,270.241v4.646h-.319v-.724a1.544,1.544,0,0,1-1.367.777,1.693,1.693,0,0,1,.007-3.385,1.451,1.451,0,0,1,1.36.77v-2.084Zm-3.007,3.007a1.272,1.272,0,0,0,1.341,1.373,1.378,1.378,0,0,0,0-2.754A1.272,1.272,0,0,0,356.357,273.248Z" fill="#fff"/>
        <path id="Path_162" data-name="Path 162" d="M360.2,271.482l.345-1.248h.378l-.431,1.248Zm.836,0,.345-1.248h.379l-.432,1.248Z" fill="#fff"/>
      </g>
    </g>
  </g>
</svg>
