<svg xmlns="http://www.w3.org/2000/svg" width="138.285" height="127.151" viewBox="0 0 138.285 127.151">
  <g id="Group_38" data-name="Group 38" transform="translate(-230.662 -291.327)">
    <g id="Group_13" data-name="Group 13">
      <g id="Group_5" data-name="Group 5">
        <g id="Group_2" data-name="Group 2">
          <path id="Path_1" data-name="Path 1" d="M243.426,392.472v4.755h.89v1.39h-.89v1.443h-1.412v-1.443h-4.06l-.13-1.455,3.42-4.69Zm-1.412,4.755V393.71l-2.572,3.517Z" fill="#262624"/>
          <path id="Path_2" data-name="Path 2" d="M247.157,393.2v1.52h1.476v1.14h-1.487v2.312a.664.664,0,0,0,.694.759,1.528,1.528,0,0,0,.641-.162l.369,1.128a2.944,2.944,0,0,1-1.1.229,1.73,1.73,0,0,1-1.922-1.954V395.86h-1v-1.14h1v-1.379Z" fill="#262624"/>
          <path id="Path_3" data-name="Path 3" d="M250.943,392.462v2.974a1.975,1.975,0,0,1,1.671-.8c1.52,0,2.193,1.032,2.193,2.606v2.822h-1.324v-2.811c0-.978-.51-1.389-1.216-1.389a1.371,1.371,0,0,0-1.324,1.465v2.735h-1.325v-7.6Z" fill="#262624"/>
          <path id="Path_4" data-name="Path 4" d="M258.223,400.06v-7.6h1.422v7.6Z" fill="#262624"/>
          <path id="Path_5" data-name="Path 5" d="M266.385,398.627h-3.973l-.651,1.433h-1.553l3.409-7.6h1.563l3.409,7.6h-1.563Zm-1.986-4.57-1.412,3.235h2.823Z" fill="#262624"/>
          <path id="Path_6" data-name="Path 6" d="M274.513,398.627H270.54l-.652,1.433h-1.552l3.408-7.6h1.564l3.408,7.6h-1.563Zm-1.987-4.57-1.411,3.235h2.822Z" fill="#262624"/>
          <path id="Path_7" data-name="Path 7" d="M282.423,400.071V397h-3.735v3.072h-1.433v-7.6h1.433v3.2h3.735v-3.2h1.422v7.6Z" fill="#262624"/>
          <path id="Path_8" data-name="Path 8" d="M294,394.556l-2.475,3.3h-.283l-2.42-3.311v5.525H287.39v-7.6h1.65l2.377,3.268,2.378-3.268h1.639v7.6H294Z" fill="#262624"/>
          <path id="Path_9" data-name="Path 9" d="M302.443,400.06h-5.689v-7.6h5.689v1.389h-4.267V395.6h4.114v1.335h-4.114v1.715h4.267Z" fill="#262624"/>
          <path id="Path_10" data-name="Path 10" d="M308.768,392.45H310.2v7.61h-.89v.011l-3.995-5.134v5.123h-1.433v-7.6h1.161l3.724,4.711Z" fill="#262624"/>
          <path id="Path_11" data-name="Path 11" d="M316.906,398.627h-3.973l-.651,1.433h-1.553l3.409-7.6H315.7l3.409,7.6h-1.564Zm-1.986-4.57-1.412,3.235h2.823Z" fill="#262624"/>
          <path id="Path_12" data-name="Path 12" d="M328.571,400.06h-1.7l-2.215-2.539h-1.379v2.539h-1.432v-7.61c1.2,0,2.41.012,3.615.012a2.517,2.517,0,0,1,2.735,2.518,2.256,2.256,0,0,1-1.921,2.389l2.3,2.594Zm-5.3-6.263v2.432h2.183a1.219,1.219,0,1,0,0-2.432Z" fill="#262624"/>
          <path id="Path_13" data-name="Path 13" d="M334.82,400.06h-5.688v-7.6h5.688v1.389h-4.266V395.6h4.115v1.335h-4.115v1.715h4.266Z" fill="#262624"/>
          <path id="Path_14" data-name="Path 14" d="M341.57,394.318a2.911,2.911,0,0,0-1.932-.76,2.592,2.592,0,0,0-2.616,2.8,2.406,2.406,0,0,0,2.616,2.54,2.524,2.524,0,0,0,1.715-.608v-1.347H339.41v-1.28h3.256v3.2a3.783,3.783,0,0,1-3.028,1.368,3.662,3.662,0,0,1-4.017-3.875,3.865,3.865,0,0,1,4.017-4.115,4.013,4.013,0,0,1,2.822,1.162Z" fill="#262624"/>
          <path id="Path_15" data-name="Path 15" d="M343.845,400.06v-7.6h1.422v7.6Z" fill="#262624"/>
          <path id="Path_16" data-name="Path 16" d="M354.309,396.3a3.9,3.9,0,1,1-7.8.01,3.9,3.9,0,1,1,7.8-.01Zm-6.394.032a2.493,2.493,0,1,0,4.983-.011,2.5,2.5,0,1,0-4.983.011Z" fill="#262624"/>
          <path id="Path_17" data-name="Path 17" d="M360.352,392.45h1.433v7.61h-.89v.011l-3.995-5.134v5.123h-1.433v-7.6h1.162l3.723,4.711Z" fill="#262624"/>
        </g>
        <g id="Group_3" data-name="Group 3">
          <path id="Path_18" data-name="Path 18" d="M241.757,407.765h-2.53l-.415.913h-.988l2.17-4.839h1l2.171,4.839h-1Zm-1.265-2.909-.9,2.059h1.8Z" fill="#262624"/>
          <path id="Path_19" data-name="Path 19" d="M247.983,406.217a2.292,2.292,0,0,1-2.419,2.461h-1.9v-4.839h1.9A2.285,2.285,0,0,1,247.983,406.217Zm-3.415,1.583h1a1.549,1.549,0,0,0,0-3.1h-1Z" fill="#262624"/>
          <path id="Path_20" data-name="Path 20" d="M253.414,406.286a2.485,2.485,0,1,1-4.97.007,2.486,2.486,0,1,1,4.97-.007Zm-4.072.021a1.588,1.588,0,1,0,3.173-.007,1.593,1.593,0,1,0-3.173.007Z" fill="#262624"/>
          <path id="Path_21" data-name="Path 21" d="M255,403.839v4h2.489v.843h-3.4v-4.839Z" fill="#262624"/>
          <path id="Path_22" data-name="Path 22" d="M261.745,408.678h-3.622v-4.839h3.622v.885h-2.717v1.113h2.62v.85h-2.62v1.092h2.717Z" fill="#262624"/>
          <path id="Path_23" data-name="Path 23" d="M265.586,405.007a1.388,1.388,0,0,0-1.148-.538c-.677,0-1,.283-1,.642,0,.422.5.539,1.078.609,1.009.123,1.949.387,1.949,1.541,0,1.078-.954,1.542-2.032,1.542a2.01,2.01,0,0,1-2.108-1.19l.76-.394a1.378,1.378,0,0,0,1.362.768c.574,0,1.113-.2,1.113-.726,0-.457-.477-.643-1.12-.712-.988-.118-1.9-.38-1.9-1.466,0-.995.982-1.4,1.873-1.41a1.959,1.959,0,0,1,1.9.961Z" fill="#262624"/>
          <path id="Path_24" data-name="Path 24" d="M271.437,408.069a2.549,2.549,0,0,1-1.839.72,2.379,2.379,0,0,1-2.564-2.5,2.436,2.436,0,0,1,2.564-2.551,2.5,2.5,0,0,1,1.777.74l-.608.587a1.666,1.666,0,0,0-1.169-.456,1.586,1.586,0,0,0-1.665,1.68,1.551,1.551,0,0,0,1.665,1.639,1.78,1.78,0,0,0,1.217-.491Z" fill="#262624"/>
          <path id="Path_25" data-name="Path 25" d="M275.562,408.678H271.94v-4.839h3.622v.885h-2.717v1.113h2.62v.85h-2.62v1.092h2.717Z" fill="#262624"/>
          <path id="Path_26" data-name="Path 26" d="M279.6,403.832h.912v4.846h-.567v.007l-2.544-3.27v3.263h-.912v-4.839h.74l2.371,3Z" fill="#262624"/>
          <path id="Path_27" data-name="Path 27" d="M282.6,404.669h-1.534v-.83h3.981v.83h-1.534v4.009H282.6Z" fill="#262624"/>
          <path id="Path_28" data-name="Path 28" d="M290.3,408.685v-1.957h-2.378v1.957h-.913v-4.839h.913v2.039H290.3v-2.039h.9v4.839Z" fill="#262624"/>
          <path id="Path_29" data-name="Path 29" d="M295.674,408.678h-3.622v-4.839h3.622v.885h-2.716v1.113h2.62v.85h-2.62v1.092h2.716Z" fill="#262624"/>
          <path id="Path_30" data-name="Path 30" d="M299.819,407.765h-2.53l-.415.913h-.988l2.17-4.839h.995l2.171,4.839h-.995Zm-1.265-2.909-.9,2.059h1.8Z" fill="#262624"/>
          <path id="Path_31" data-name="Path 31" d="M302.623,403.839v4h2.489v.843h-3.4v-4.839Z" fill="#262624"/>
          <path id="Path_32" data-name="Path 32" d="M306.29,404.669h-1.535v-.83h3.982v.83H307.2v4.009h-.912Z" fill="#262624"/>
          <path id="Path_33" data-name="Path 33" d="M312.591,408.685v-1.957h-2.378v1.957H309.3v-4.839h.912v2.039h2.378v-2.039h.906v4.839Z" fill="#262624"/>
          <path id="Path_34" data-name="Path 34" d="M320.021,408.069a2.551,2.551,0,0,1-1.838.72,2.379,2.379,0,0,1-2.565-2.5,2.435,2.435,0,0,1,2.565-2.551,2.5,2.5,0,0,1,1.776.74l-.608.587a1.667,1.667,0,0,0-1.168-.456,1.587,1.587,0,0,0-1.667,1.68,1.553,1.553,0,0,0,1.667,1.639,1.781,1.781,0,0,0,1.216-.491Z" fill="#262624"/>
          <path id="Path_35" data-name="Path 35" d="M325.292,406.286a2.485,2.485,0,1,1-4.97.007,2.486,2.486,0,1,1,4.97-.007Zm-4.071.021a1.588,1.588,0,1,0,3.173-.007,1.593,1.593,0,1,0-3.173.007Z" fill="#262624"/>
          <path id="Path_36" data-name="Path 36" d="M329.148,403.832h.912v4.846h-.566v.007l-2.545-3.27v3.263h-.912v-4.839h.74l2.371,3Z" fill="#262624"/>
          <path id="Path_37" data-name="Path 37" d="M330.9,408.678v-4.832h3.477v.878h-2.565v1.32h2.427v.844h-2.427v1.79Z" fill="#262624"/>
          <path id="Path_38" data-name="Path 38" d="M338.619,408.678H335v-4.839h3.622v.885H335.9v1.113h2.62v.85H335.9v1.092h2.717Z" fill="#262624"/>
          <path id="Path_39" data-name="Path 39" d="M343.621,408.678h-1.086l-1.41-1.617h-.878v1.617h-.913v-4.846c.768,0,1.535.007,2.3.007a1.6,1.6,0,0,1,1.742,1.6,1.436,1.436,0,0,1-1.224,1.521l1.466,1.652Zm-3.374-3.989v1.549h1.39a.776.776,0,1,0,0-1.549Z" fill="#262624"/>
          <path id="Path_40" data-name="Path 40" d="M347.606,408.678h-3.622v-4.839h3.622v.885h-2.717v1.113h2.62v.85h-2.62v1.092h2.717Z" fill="#262624"/>
          <path id="Path_41" data-name="Path 41" d="M351.641,403.832h.912v4.846h-.567v.007l-2.544-3.27v3.263h-.912v-4.839h.739l2.372,3Z" fill="#262624"/>
          <path id="Path_42" data-name="Path 42" d="M357.66,408.069a2.554,2.554,0,0,1-1.839.72,2.379,2.379,0,0,1-2.565-2.5,2.436,2.436,0,0,1,2.565-2.551,2.5,2.5,0,0,1,1.776.74l-.608.587a1.667,1.667,0,0,0-1.168-.456,1.586,1.586,0,0,0-1.666,1.68,1.551,1.551,0,0,0,1.666,1.639,1.781,1.781,0,0,0,1.216-.491Z" fill="#262624"/>
          <path id="Path_43" data-name="Path 43" d="M361.782,408.678H358.16v-4.839h3.622v.885h-2.716v1.113h2.619v.85h-2.619v1.092h2.716Z" fill="#262624"/>
        </g>
        <g id="Group_4" data-name="Group 4">
          <path id="Path_44" data-name="Path 44" d="M238.546,411.7l-.344,1.246h-.378l.431-1.246Zm.835,0-.344,1.246h-.378l.431-1.246Z" fill="#262624"/>
          <path id="Path_45" data-name="Path 45" d="M243.952,416.345l-.51-1.14h-2.77l-.5,1.14h-.384l2.081-4.639h.391l2.081,4.639Zm-.649-1.471-1.246-2.823-1.246,2.823Z" fill="#262624"/>
          <path id="Path_46" data-name="Path 46" d="M247.8,411.706v4.639h-.319v-.723a1.541,1.541,0,0,1-1.365.776,1.691,1.691,0,0,1,.007-3.38,1.447,1.447,0,0,1,1.358.769v-2.081Zm-3,3a1.27,1.27,0,0,0,1.338,1.371,1.375,1.375,0,0,0,0-2.749A1.269,1.269,0,0,0,244.8,414.708Z" fill="#262624"/>
          <path id="Path_47" data-name="Path 47" d="M248.579,414.714a1.664,1.664,0,1,1,3.327,0,1.664,1.664,0,1,1-3.327,0Zm3.009,0a1.346,1.346,0,1,0-2.691,0,1.346,1.346,0,1,0,2.691,0Z" fill="#262624"/>
          <path id="Path_48" data-name="Path 48" d="M252.977,411.706v4.639h-.325v-4.639Z" fill="#262624"/>
          <path id="Path_49" data-name="Path 49" d="M253.7,414.708a1.646,1.646,0,0,1,1.663-1.69,1.529,1.529,0,0,1,1.617,1.842H254.03a1.288,1.288,0,0,0,1.332,1.213,1.538,1.538,0,0,0,1.179-.5l.232.186a1.8,1.8,0,0,1-1.411.629A1.605,1.605,0,0,1,253.7,414.708Zm2.988-.133a1.2,1.2,0,0,0-1.325-1.259,1.308,1.308,0,0,0-1.332,1.259Z" fill="#262624"/>
          <path id="Path_50" data-name="Path 50" d="M260.064,413.667a1.4,1.4,0,0,0-1.02-.344c-.51-.007-1,.186-.987.6.013.437.582.524.994.6.583.1,1.385.2,1.351.961-.02.722-.768.914-1.345.914a1.687,1.687,0,0,1-1.431-.656l.238-.212a1.453,1.453,0,0,0,1.2.556c.4,0,1-.105,1.02-.622.013-.471-.53-.564-1.067-.65-.636-.106-1.265-.226-1.272-.881s.636-.921,1.3-.915a1.711,1.711,0,0,1,1.219.438Z" fill="#262624"/>
          <path id="Path_51" data-name="Path 51" d="M263.806,415.888a1.674,1.674,0,0,1-1.192.49,1.67,1.67,0,1,1,0-3.34,1.7,1.7,0,0,1,1.192.491l-.212.205a1.387,1.387,0,0,0-.98-.391,1.365,1.365,0,1,0,0,2.73,1.386,1.386,0,0,0,.974-.4Z" fill="#262624"/>
          <path id="Path_52" data-name="Path 52" d="M264.414,414.708a1.646,1.646,0,0,1,1.663-1.69,1.529,1.529,0,0,1,1.617,1.842h-2.949a1.288,1.288,0,0,0,1.332,1.213,1.539,1.539,0,0,0,1.18-.5l.232.186a1.8,1.8,0,0,1-1.412.629A1.605,1.605,0,0,1,264.414,414.708Zm2.988-.133a1.2,1.2,0,0,0-1.325-1.259,1.308,1.308,0,0,0-1.332,1.259Z" fill="#262624"/>
          <path id="Path_53" data-name="Path 53" d="M268.852,413.072v.582a1.3,1.3,0,0,1,1.166-.642,1.366,1.366,0,0,1,1.478,1.444v1.889h-.325v-1.882a1.047,1.047,0,0,0-1.166-1.133,1.137,1.137,0,0,0-1.147,1.193v1.822h-.325v-3.273Z" fill="#262624"/>
          <path id="Path_54" data-name="Path 54" d="M272.951,412.084v.988h1.114v.271h-1.114v2c0,.444.093.755.6.755a1.22,1.22,0,0,0,.5-.132l.113.264a1.425,1.425,0,0,1-.616.166c-.7,0-.922-.41-.922-1.053v-2h-.7v-.271h.7v-.955Z" fill="#262624"/>
          <path id="Path_55" data-name="Path 55" d="M279.317,415.888a1.677,1.677,0,0,1-1.193.49,1.67,1.67,0,1,1,0-3.34,1.7,1.7,0,0,1,1.193.491l-.212.205a1.389,1.389,0,0,0-.981-.391,1.365,1.365,0,0,0,0,2.73,1.386,1.386,0,0,0,.974-.4Z" fill="#262624"/>
          <path id="Path_56" data-name="Path 56" d="M283.125,413.072v3.273H282.8v-.7a1.532,1.532,0,0,1-1.339.749,1.683,1.683,0,0,1,0-3.366,1.484,1.484,0,0,1,1.339.755v-.715Zm-3,1.636a1.314,1.314,0,0,0,1.338,1.371,1.368,1.368,0,0,0,0-2.736A1.309,1.309,0,0,0,280.124,414.708Z" fill="#262624"/>
          <path id="Path_57" data-name="Path 57" d="M284.309,413.072l.013.582a1.152,1.152,0,0,1,1.087-.616,1.291,1.291,0,0,1,.7.192l-.146.266a1.048,1.048,0,0,0-.557-.153,1.087,1.087,0,0,0-1.08,1.094v1.908H284v-3.273Z" fill="#262624"/>
          <path id="Path_58" data-name="Path 58" d="M286.415,414.708a1.646,1.646,0,0,1,1.663-1.69,1.529,1.529,0,0,1,1.617,1.842h-2.949a1.288,1.288,0,0,0,1.332,1.213,1.538,1.538,0,0,0,1.179-.5l.232.186a1.8,1.8,0,0,1-1.411.629A1.605,1.605,0,0,1,286.415,414.708Zm2.988-.133a1.2,1.2,0,0,0-1.325-1.259,1.308,1.308,0,0,0-1.332,1.259Z" fill="#262624"/>
          <path id="Path_59" data-name="Path 59" d="M290.991,416.146a.344.344,0,0,1-.019.113l-.265.676h-.285l.205-.55a.245.245,0,0,1-.159-.239A.262.262,0,0,1,290.991,416.146Z" fill="#262624"/>
          <path id="Path_60" data-name="Path 60" d="M293.991,411.706v4.639h-.325v-4.639Z" fill="#262624"/>
          <path id="Path_61" data-name="Path 61" d="M294.713,414.708a1.646,1.646,0,0,1,1.663-1.69,1.529,1.529,0,0,1,1.617,1.842h-2.949a1.288,1.288,0,0,0,1.332,1.213,1.539,1.539,0,0,0,1.18-.5l.232.186a1.8,1.8,0,0,1-1.412.629A1.605,1.605,0,0,1,294.713,414.708Zm2.988-.133a1.2,1.2,0,0,0-1.325-1.259,1.308,1.308,0,0,0-1.332,1.259Z" fill="#262624"/>
          <path id="Path_62" data-name="Path 62" d="M301.98,413.072v3.273h-.325v-.7a1.531,1.531,0,0,1-1.339.749,1.683,1.683,0,0,1,0-3.366,1.482,1.482,0,0,1,1.339.755v-.715Zm-3,1.636a1.314,1.314,0,0,0,1.338,1.371,1.368,1.368,0,0,0,0-2.736A1.309,1.309,0,0,0,298.978,414.708Z" fill="#262624"/>
          <path id="Path_63" data-name="Path 63" d="M302.342,413.072h.358l1.193,2.9,1.193-2.9h.357l-1.371,3.273h-.358Z" fill="#262624"/>
          <path id="Path_64" data-name="Path 64" d="M306.409,412a.262.262,0,0,1-.523,0A.262.262,0,0,1,306.409,412Zm-.431,1.054v3.287h.325v-3.287Z" fill="#262624"/>
          <path id="Path_65" data-name="Path 65" d="M307.548,413.072v.582a1.3,1.3,0,0,1,1.166-.642,1.366,1.366,0,0,1,1.478,1.444v1.889h-.325v-1.882a1.047,1.047,0,0,0-1.166-1.133,1.136,1.136,0,0,0-1.146,1.193v1.822h-.325v-3.273Z" fill="#262624"/>
          <path id="Path_66" data-name="Path 66" d="M313.669,412.939l.212.185-.318.372a1.61,1.61,0,0,1-.478,2.5,1.2,1.2,0,0,1,.9,1.173c0,.881-.689,1.3-1.557,1.3s-1.551-.477-1.551-1.3h.325c0,.67.57.988,1.226.988s1.239-.292,1.239-.988-.63-.981-1.239-.981a1.591,1.591,0,0,1,0-3.18,1.664,1.664,0,0,1,.928.3Zm-2.459,1.669a1.2,1.2,0,0,0,1.213,1.26,1.256,1.256,0,0,0,1.226-1.26,1.177,1.177,0,0,0-1.226-1.272A1.158,1.158,0,0,0,311.21,414.608Z" fill="#262624"/>
          <path id="Path_67" data-name="Path 67" d="M316.3,414.714a1.664,1.664,0,1,1,3.327,0,1.664,1.664,0,1,1-3.327,0Zm3.009,0a1.346,1.346,0,1,0-2.691,0,1.346,1.346,0,1,0,2.691,0Z" fill="#262624"/>
          <path id="Path_68" data-name="Path 68" d="M320.694,413.072v.582a1.3,1.3,0,0,1,1.166-.642,1.365,1.365,0,0,1,1.478,1.444v1.889h-.324v-1.882a1.048,1.048,0,0,0-1.167-1.133,1.136,1.136,0,0,0-1.146,1.193v1.822h-.325v-3.273Z" fill="#262624"/>
          <path id="Path_69" data-name="Path 69" d="M325.853,414.714a1.664,1.664,0,1,1,3.327,0,1.664,1.664,0,1,1-3.327,0Zm3.009,0a1.346,1.346,0,1,0-2.691,0,1.346,1.346,0,1,0,2.691,0Z" fill="#262624"/>
          <path id="Path_70" data-name="Path 70" d="M330.244,413.072v.582a1.3,1.3,0,0,1,1.167-.642,1.366,1.366,0,0,1,1.478,1.444v1.889h-.325v-1.882a1.048,1.048,0,0,0-1.167-1.133,1.136,1.136,0,0,0-1.146,1.193v1.822h-.325v-3.273Z" fill="#262624"/>
          <path id="Path_71" data-name="Path 71" d="M333.548,414.708a1.646,1.646,0,0,1,1.663-1.69,1.529,1.529,0,0,1,1.617,1.842h-2.949a1.289,1.289,0,0,0,1.332,1.213,1.539,1.539,0,0,0,1.18-.5l.232.186a1.8,1.8,0,0,1-1.412.629A1.605,1.605,0,0,1,333.548,414.708Zm2.989-.133a1.2,1.2,0,0,0-1.326-1.259,1.309,1.309,0,0,0-1.332,1.259Z" fill="#262624"/>
          <path id="Path_72" data-name="Path 72" d="M339.807,411.706v2.081a1.45,1.45,0,0,1,1.359-.769,1.691,1.691,0,0,1,.006,3.38,1.543,1.543,0,0,1-1.365-.776v.723h-.318v-4.639Zm.007,2.995a1.308,1.308,0,0,0,1.338,1.378,1.375,1.375,0,0,0,0-2.749A1.31,1.31,0,0,0,339.814,414.7Z" fill="#262624"/>
          <path id="Path_73" data-name="Path 73" d="M343.416,414.708a1.646,1.646,0,0,1,1.664-1.69,1.528,1.528,0,0,1,1.616,1.842h-2.949a1.289,1.289,0,0,0,1.333,1.213,1.537,1.537,0,0,0,1.179-.5l.233.186a1.8,1.8,0,0,1-1.412.629A1.606,1.606,0,0,1,343.416,414.708Zm2.989-.133a1.2,1.2,0,0,0-1.325-1.259,1.309,1.309,0,0,0-1.333,1.259Z" fill="#262624"/>
          <path id="Path_74" data-name="Path 74" d="M347.781,411.706v1.974a1.31,1.31,0,0,1,1.179-.655,1.292,1.292,0,0,1,1.372,1.445v1.875h-.318V414.47c0-.677-.318-1.134-1.054-1.134a1.155,1.155,0,0,0-1.166,1.213v1.8h-.325v-4.639Z" fill="#262624"/>
          <path id="Path_75" data-name="Path 75" d="M351.609,412a.262.262,0,0,1-.524,0A.262.262,0,0,1,351.609,412Zm-.431,1.054v3.287h.325v-3.287Z" fill="#262624"/>
          <path id="Path_76" data-name="Path 76" d="M352.748,413.072v.582a1.3,1.3,0,0,1,1.167-.642,1.366,1.366,0,0,1,1.478,1.444v1.889h-.325v-1.882a1.048,1.048,0,0,0-1.167-1.133,1.136,1.136,0,0,0-1.146,1.193v1.822h-.325v-3.273Z" fill="#262624"/>
          <path id="Path_77" data-name="Path 77" d="M359.379,411.706v4.639h-.318v-.723a1.543,1.543,0,0,1-1.365.776,1.691,1.691,0,0,1,.007-3.38,1.448,1.448,0,0,1,1.358.769v-2.081Zm-3,3a1.27,1.27,0,0,0,1.339,1.371,1.375,1.375,0,0,0,0-2.749A1.269,1.269,0,0,0,356.377,414.708Z" fill="#262624"/>
          <path id="Path_78" data-name="Path 78" d="M360.218,412.945l.345-1.246h.377l-.431,1.246Zm.835,0,.344-1.246h.378l-.431,1.246Z" fill="#262624"/>
        </g>
      </g>
      <g id="Group_12" data-name="Group 12">
        <g id="Group_6" data-name="Group 6">
          <rect id="Rectangle_4" data-name="Rectangle 4" width="31.997" height="8.953" rx="4.477" transform="translate(283.775 361.628)" fill="#262524"/>
          <rect id="Rectangle_5" data-name="Rectangle 5" width="31.997" height="8.953" rx="4.477" transform="translate(283.775 376.453)" fill="#262524"/>
        </g>
        <g id="Group_11" data-name="Group 11">
          <g id="Group_7" data-name="Group 7">
            <path id="Path_79" data-name="Path 79" d="M281.057,337.259a18.747,18.747,0,1,1,37.495,0c0,.346-.011.69-.031,1.031a3.153,3.153,0,0,0,3.125,3.379h0a3.131,3.131,0,0,0,3.134-2.92q.047-.739.046-1.49a25.022,25.022,0,1,0-50.044,0q0,.75.046,1.49a3.131,3.131,0,0,0,3.135,2.92h0a3.153,3.153,0,0,0,3.125-3.379Q281.056,337.779,281.057,337.259Z" fill="#fea30f"/>
            <circle id="Ellipse_3" data-name="Ellipse 3" cx="9.355" cy="9.355" r="9.355" transform="translate(290.45 291.327)" fill="#fea30f"/>
          </g>
          <g id="Group_10" data-name="Group 10">
            <g id="Group_8" data-name="Group 8">
              <path id="Path_80" data-name="Path 80" d="M323.014,341.637a18.747,18.747,0,1,1,0,37.494q-.519,0-1.031-.03a3.151,3.151,0,0,0-3.378,3.124h0a3.131,3.131,0,0,0,2.919,3.135q.74.045,1.49.046a25.022,25.022,0,1,0,0-50.044q-.75,0-1.49.046a3.131,3.131,0,0,0-2.919,3.135h0a3.152,3.152,0,0,0,3.378,3.125Q322.495,341.637,323.014,341.637Z" fill="#fea30f"/>
              <circle id="Ellipse_4" data-name="Ellipse 4" cx="9.355" cy="9.355" r="9.355" transform="translate(350.238 351.029)" fill="#fea30f"/>
            </g>
            <g id="Group_9" data-name="Group 9">
              <path id="Path_81" data-name="Path 81" d="M276.594,379.131a18.747,18.747,0,1,1,0-37.494q.519,0,1.031.031A3.153,3.153,0,0,0,281,338.543h0a3.131,3.131,0,0,0-2.92-3.135q-.74-.045-1.49-.046a25.022,25.022,0,0,0,0,50.044q.752,0,1.49-.046a3.131,3.131,0,0,0,2.92-3.135h0a3.151,3.151,0,0,0-3.379-3.124Q277.113,379.131,276.594,379.131Z" fill="#fea30f"/>
              <circle id="Ellipse_5" data-name="Ellipse 5" cx="9.355" cy="9.355" r="9.355" transform="translate(230.662 351.029)" fill="#fea30f"/>
            </g>
          </g>
        </g>
      </g>
    </g>
  </g>
</svg>
