<svg xmlns="http://www.w3.org/2000/svg" width="138.285" height="117.477" viewBox="0 0 138.285 117.477">
  <g id="Group_42" data-name="Group 42" transform="translate(-230.662 -146.02)">
    <g id="Group_15" data-name="Group 15">
      <path id="Path_99" data-name="Path 99" d="M241.757,262.459h-2.53l-.415.913h-.988l2.17-4.839h1l2.171,4.839h-1Zm-1.265-2.91-.9,2.06h1.8Z" fill="#fff"/>
      <path id="Path_100" data-name="Path 100" d="M247.983,260.911a2.292,2.292,0,0,1-2.419,2.461h-1.9v-4.839h1.9A2.285,2.285,0,0,1,247.983,260.911Zm-3.415,1.583h1a1.549,1.549,0,0,0,0-3.1h-1Z" fill="#fff"/>
      <path id="Path_101" data-name="Path 101" d="M253.414,260.98a2.485,2.485,0,1,1-4.97.007,2.486,2.486,0,1,1,4.97-.007Zm-4.072.021a1.588,1.588,0,1,0,3.173-.007,1.593,1.593,0,1,0-3.173.007Z" fill="#fff"/>
      <path id="Path_102" data-name="Path 102" d="M255,258.533v4h2.489v.843h-3.4v-4.839Z" fill="#fff"/>
      <path id="Path_103" data-name="Path 103" d="M261.745,263.372h-3.622v-4.839h3.622v.885h-2.717v1.112h2.62v.851h-2.62v1.092h2.717Z" fill="#fff"/>
      <path id="Path_104" data-name="Path 104" d="M265.586,259.7a1.388,1.388,0,0,0-1.148-.539c-.677,0-1,.284-1,.643,0,.422.5.539,1.078.609,1.009.123,1.949.387,1.949,1.541,0,1.078-.954,1.542-2.032,1.542a2.01,2.01,0,0,1-2.108-1.19l.76-.394a1.38,1.38,0,0,0,1.362.768c.574,0,1.113-.2,1.113-.726,0-.457-.477-.643-1.12-.712-.988-.118-1.9-.38-1.9-1.466,0-.995.982-1.4,1.873-1.41a1.959,1.959,0,0,1,1.9.961Z" fill="#fff"/>
      <path id="Path_105" data-name="Path 105" d="M271.437,262.763a2.549,2.549,0,0,1-1.839.72,2.379,2.379,0,0,1-2.564-2.5,2.436,2.436,0,0,1,2.564-2.551,2.5,2.5,0,0,1,1.777.739l-.608.588a1.662,1.662,0,0,0-1.169-.456,1.586,1.586,0,0,0-1.665,1.68,1.551,1.551,0,0,0,1.665,1.639,1.785,1.785,0,0,0,1.217-.491Z" fill="#fff"/>
      <path id="Path_106" data-name="Path 106" d="M275.562,263.372H271.94v-4.839h3.622v.885h-2.717v1.112h2.62v.851h-2.62v1.092h2.717Z" fill="#fff"/>
      <path id="Path_107" data-name="Path 107" d="M279.6,258.526h.912v4.846h-.567v.007l-2.544-3.27v3.263h-.912v-4.839h.74l2.371,3Z" fill="#fff"/>
      <path id="Path_108" data-name="Path 108" d="M282.6,259.362h-1.534v-.829h3.981v.829h-1.534v4.01H282.6Z" fill="#fff"/>
      <path id="Path_109" data-name="Path 109" d="M290.3,263.379v-1.957h-2.378v1.957h-.913V258.54h.913v2.039H290.3V258.54h.9v4.839Z" fill="#fff"/>
      <path id="Path_110" data-name="Path 110" d="M295.674,263.372h-3.622v-4.839h3.622v.885h-2.716v1.112h2.62v.851h-2.62v1.092h2.716Z" fill="#fff"/>
      <path id="Path_111" data-name="Path 111" d="M299.819,262.459h-2.53l-.415.913h-.988l2.17-4.839h.995l2.171,4.839h-.995Zm-1.265-2.91-.9,2.06h1.8Z" fill="#fff"/>
      <path id="Path_112" data-name="Path 112" d="M302.623,258.533v4h2.489v.843h-3.4v-4.839Z" fill="#fff"/>
      <path id="Path_113" data-name="Path 113" d="M306.29,259.362h-1.535v-.829h3.982v.829H307.2v4.01h-.912Z" fill="#fff"/>
      <path id="Path_114" data-name="Path 114" d="M312.591,263.379v-1.957h-2.378v1.957H309.3V258.54h.912v2.039h2.378V258.54h.906v4.839Z" fill="#fff"/>
      <path id="Path_115" data-name="Path 115" d="M320.021,262.763a2.551,2.551,0,0,1-1.838.72,2.379,2.379,0,0,1-2.565-2.5,2.435,2.435,0,0,1,2.565-2.551,2.5,2.5,0,0,1,1.776.739l-.608.588a1.663,1.663,0,0,0-1.168-.456,1.587,1.587,0,0,0-1.667,1.68,1.553,1.553,0,0,0,1.667,1.639,1.786,1.786,0,0,0,1.216-.491Z" fill="#fff"/>
      <path id="Path_116" data-name="Path 116" d="M325.292,260.98a2.485,2.485,0,1,1-4.97.007,2.486,2.486,0,1,1,4.97-.007Zm-4.071.021a1.588,1.588,0,1,0,3.173-.007,1.593,1.593,0,1,0-3.173.007Z" fill="#fff"/>
      <path id="Path_117" data-name="Path 117" d="M329.148,258.526h.912v4.846h-.566v.007l-2.545-3.27v3.263h-.912v-4.839h.74l2.371,3Z" fill="#fff"/>
      <path id="Path_118" data-name="Path 118" d="M330.9,263.372V258.54h3.477v.878h-2.565v1.32h2.427v.843h-2.427v1.791Z" fill="#fff"/>
      <path id="Path_119" data-name="Path 119" d="M338.619,263.372H335v-4.839h3.622v.885H335.9v1.112h2.62v.851H335.9v1.092h2.717Z" fill="#fff"/>
      <path id="Path_120" data-name="Path 120" d="M343.621,263.372h-1.086l-1.41-1.617h-.878v1.617h-.913v-4.846c.768,0,1.535.007,2.3.007a1.6,1.6,0,0,1,1.742,1.6,1.436,1.436,0,0,1-1.224,1.522l1.466,1.652Zm-3.374-3.989v1.549h1.39a.776.776,0,1,0,0-1.549Z" fill="#fff"/>
      <path id="Path_121" data-name="Path 121" d="M347.606,263.372h-3.622v-4.839h3.622v.885h-2.717v1.112h2.62v.851h-2.62v1.092h2.717Z" fill="#fff"/>
      <path id="Path_122" data-name="Path 122" d="M351.641,258.526h.912v4.846h-.567v.007l-2.544-3.27v3.263h-.912v-4.839h.739l2.372,3Z" fill="#fff"/>
      <path id="Path_123" data-name="Path 123" d="M357.66,262.763a2.554,2.554,0,0,1-1.839.72,2.379,2.379,0,0,1-2.565-2.5,2.436,2.436,0,0,1,2.565-2.551,2.5,2.5,0,0,1,1.776.739l-.608.588a1.663,1.663,0,0,0-1.168-.456,1.586,1.586,0,0,0-1.666,1.68,1.551,1.551,0,0,0,1.666,1.639,1.786,1.786,0,0,0,1.216-.491Z" fill="#fff"/>
      <path id="Path_124" data-name="Path 124" d="M361.782,263.372H358.16v-4.839h3.622v.885h-2.716v1.112h2.619v.851h-2.619v1.092h2.716Z" fill="#fff"/>
    </g>
    <g id="Group_41" data-name="Group 41">
      <g id="Group_14" data-name="Group 14">
        <path id="Path_82" data-name="Path 82" d="M243.426,247.166v4.755h.89v1.39h-.89v1.443h-1.412v-1.443h-4.06l-.13-1.455,3.42-4.69Zm-1.412,4.755V248.4l-2.572,3.517Z" fill="#fff"/>
        <path id="Path_83" data-name="Path 83" d="M247.157,247.894v1.519h1.476v1.14h-1.487v2.313a.664.664,0,0,0,.694.759,1.528,1.528,0,0,0,.641-.162l.369,1.128a2.963,2.963,0,0,1-1.1.229,1.73,1.73,0,0,1-1.922-1.954v-2.313h-1v-1.14h1v-1.379Z" fill="#fff"/>
        <path id="Path_84" data-name="Path 84" d="M250.943,247.155v2.975a1.975,1.975,0,0,1,1.671-.8c1.52,0,2.193,1.032,2.193,2.606v2.822h-1.324v-2.811c0-.978-.51-1.39-1.216-1.39a1.372,1.372,0,0,0-1.324,1.466v2.735h-1.325v-7.6Z" fill="#fff"/>
        <path id="Path_85" data-name="Path 85" d="M258.223,254.754v-7.6h1.422v7.6Z" fill="#fff"/>
        <path id="Path_86" data-name="Path 86" d="M266.385,253.321h-3.973l-.651,1.433h-1.553l3.409-7.6h1.563l3.409,7.6h-1.563Zm-1.986-4.57-1.412,3.235h2.823Z" fill="#fff"/>
        <path id="Path_87" data-name="Path 87" d="M274.513,253.321H270.54l-.652,1.433h-1.552l3.408-7.6h1.564l3.408,7.6h-1.563Zm-1.987-4.57-1.411,3.235h2.822Z" fill="#fff"/>
        <path id="Path_88" data-name="Path 88" d="M282.423,254.765v-3.072h-3.735v3.072h-1.433v-7.6h1.433v3.2h3.735v-3.2h1.422v7.6Z" fill="#fff"/>
        <path id="Path_89" data-name="Path 89" d="M294,249.25l-2.475,3.3h-.283l-2.42-3.31v5.525H287.39v-7.6h1.65l2.377,3.268,2.378-3.268h1.639v7.6H294Z" fill="#fff"/>
        <path id="Path_90" data-name="Path 90" d="M302.443,254.754h-5.689v-7.6h5.689v1.39h-4.267v1.747h4.114v1.336h-4.114v1.715h4.267Z" fill="#fff"/>
        <path id="Path_91" data-name="Path 91" d="M308.768,247.144H310.2v7.61h-.89v.011l-3.995-5.134v5.123h-1.433v-7.6h1.161l3.724,4.712Z" fill="#fff"/>
        <path id="Path_92" data-name="Path 92" d="M316.906,253.321h-3.973l-.651,1.433h-1.553l3.409-7.6H315.7l3.409,7.6h-1.564Zm-1.986-4.57-1.412,3.235h2.823Z" fill="#fff"/>
        <path id="Path_93" data-name="Path 93" d="M328.571,254.754h-1.7l-2.215-2.54h-1.379v2.54h-1.432v-7.61c1.2,0,2.41.011,3.615.011a2.518,2.518,0,0,1,2.735,2.519,2.256,2.256,0,0,1-1.921,2.389l2.3,2.594Zm-5.3-6.263v2.432h2.183a1.219,1.219,0,1,0,0-2.432Z" fill="#fff"/>
        <path id="Path_94" data-name="Path 94" d="M334.82,254.754h-5.688v-7.6h5.688v1.39h-4.266v1.747h4.115v1.336h-4.115v1.715h4.266Z" fill="#fff"/>
        <path id="Path_95" data-name="Path 95" d="M341.57,249.012a2.911,2.911,0,0,0-1.932-.76,2.592,2.592,0,0,0-2.616,2.8,2.406,2.406,0,0,0,2.616,2.54,2.524,2.524,0,0,0,1.715-.608v-1.347H339.41v-1.28h3.256v3.2a3.786,3.786,0,0,1-3.028,1.368,3.662,3.662,0,0,1-4.017-3.875,3.865,3.865,0,0,1,4.017-4.115,4.013,4.013,0,0,1,2.822,1.162Z" fill="#fff"/>
        <path id="Path_96" data-name="Path 96" d="M343.845,254.754v-7.6h1.422v7.6Z" fill="#fff"/>
        <path id="Path_97" data-name="Path 97" d="M354.309,251a3.9,3.9,0,1,1-7.8.01,3.9,3.9,0,1,1,7.8-.01Zm-6.394.032a2.493,2.493,0,1,0,4.983-.011,2.5,2.5,0,1,0-4.983.011Z" fill="#fff"/>
        <path id="Path_98" data-name="Path 98" d="M360.352,247.144h1.433v7.61h-.89v.011l-3.995-5.134v5.123h-1.433v-7.6h1.162l3.723,4.712Z" fill="#fff"/>
      </g>
      <g id="Group_17" data-name="Group 17">
        <rect id="Rectangle_6" data-name="Rectangle 6" width="31.997" height="8.953" rx="4.477" transform="translate(283.775 216.322)" fill="#fff"/>
        <rect id="Rectangle_7" data-name="Rectangle 7" width="31.997" height="8.953" rx="4.477" transform="translate(283.775 231.147)" fill="#fff"/>
      </g>
      <g id="Group_22" data-name="Group 22">
        <g id="Group_18" data-name="Group 18">
          <path id="Path_160" data-name="Path 160" d="M281.057,191.953a18.747,18.747,0,1,1,37.495,0c0,.346-.011.69-.031,1.031a3.153,3.153,0,0,0,3.125,3.379h0a3.131,3.131,0,0,0,3.134-2.92q.047-.739.046-1.49a25.022,25.022,0,1,0-50.044,0q0,.75.046,1.49a3.131,3.131,0,0,0,3.135,2.92h0a3.153,3.153,0,0,0,3.125-3.379Q281.056,192.473,281.057,191.953Z" fill="#fea30f"/>
          <circle id="Ellipse_6" data-name="Ellipse 6" cx="9.355" cy="9.355" r="9.355" transform="translate(290.45 146.02)" fill="#fea30f"/>
        </g>
        <g id="Group_21" data-name="Group 21">
          <g id="Group_19" data-name="Group 19">
            <path id="Path_161" data-name="Path 161" d="M323.014,196.331a18.747,18.747,0,1,1,0,37.494q-.519,0-1.031-.03a3.151,3.151,0,0,0-3.378,3.124h0a3.131,3.131,0,0,0,2.919,3.135q.74.045,1.49.046a25.022,25.022,0,1,0,0-50.044q-.75,0-1.49.046a3.131,3.131,0,0,0-2.919,3.135h0a3.151,3.151,0,0,0,3.378,3.124Q322.495,196.331,323.014,196.331Z" fill="#fea30f"/>
            <circle id="Ellipse_7" data-name="Ellipse 7" cx="9.355" cy="9.355" r="9.355" transform="translate(350.238 205.723)" fill="#fea30f"/>
          </g>
          <g id="Group_20" data-name="Group 20">
            <path id="Path_162" data-name="Path 162" d="M276.594,233.825a18.747,18.747,0,1,1,0-37.494q.519,0,1.031.03A3.151,3.151,0,0,0,281,193.237h0a3.131,3.131,0,0,0-2.92-3.135q-.74-.045-1.49-.046a25.022,25.022,0,0,0,0,50.044q.752,0,1.49-.046a3.131,3.131,0,0,0,2.92-3.135h0a3.152,3.152,0,0,0-3.379-3.124Q277.113,233.825,276.594,233.825Z" fill="#fea30f"/>
            <circle id="Ellipse_8" data-name="Ellipse 8" cx="9.355" cy="9.355" r="9.355" transform="translate(230.662 205.723)" fill="#fea30f"/>
          </g>
        </g>
      </g>
    </g>
  </g>
</svg>
