<svg xmlns="http://www.w3.org/2000/svg" width="1096" height="1652.002" viewBox="0 0 1096 1652.002">
  <path id="Subtraction_1" data-name="Subtraction 1" d="M1096,1707h-63a74.606,74.606,0,0,0-12.827-41.9,75.389,75.389,0,0,0-33.009-27.193A75,75,0,0,0,883,1707H828a74.606,74.606,0,0,0-12.827-41.9,75.387,75.387,0,0,0-33.008-27.193A75,75,0,0,0,678,1707H623a74.607,74.607,0,0,0-12.826-41.9,75.387,75.387,0,0,0-33.008-27.193A75,75,0,0,0,473,1707H418a74.607,74.607,0,0,0-12.826-41.9,75.387,75.387,0,0,0-33.008-27.193A75,75,0,0,0,268,1707H213a74.6,74.6,0,0,0-12.827-41.9,75.387,75.387,0,0,0-33.008-27.193A75,75,0,0,0,63,1707H0V55H65.7A75,75,0,1,0,210.3,55H270.7A75,75,0,1,0,415.3,55H475.7A75,75,0,1,0,620.3,55H680.7A75,75,0,1,0,825.3,55H885.7A75,75,0,1,0,1030.3,55H1096V1707Z" transform="translate(0 -55)" fill="#fff"/>
</svg>
